HIERARCHY
ROOT pelvis
{
  OFFSET 0 100 0
  CHANNELS 6 Xposition Yposition Zposition Zrotation Xrotation Yrotation
  JOINT pelvis_right_femur
  {
    OFFSET -10.78128 -3.44521 -0.5502486
    CHANNELS 3 Zrotation Xrotation Yrotation
    JOINT right_femur_tibia
    {
      OFFSET -0.8047443 -44.0398 -0.1307829
      CHANNELS 3 Zrotation Xrotation Yrotation
      JOINT right_tibia_foot
      {
        OFFSET 3.006224 -47.83518 -5
        CHANNELS 3 Zrotation Xrotation Yrotation
        End Site
        {
          OFFSET 0 -5 15
        }
      }
    }
  }
  JOINT pelvis_left_femur
  {
    OFFSET 10.78128 -3.44521 -0.5502486
    CHANNELS 3 Zrotation Xrotation Yrotation
    JOINT left_femur_tibia
    {
      OFFSET 0.8047443 -44.0398 -0.1307829
      CHANNELS 3 Zrotation Xrotation Yrotation
      JOINT left_tibia_foot
      {
        OFFSET -4.370144 -48.10324 -4.275266
        CHANNELS 3 Zrotation Xrotation Yrotation
        End Site
        {
          OFFSET 0 -5 15
        }
      }
    }
  }
  JOINT pelvis_spine1
  {
    OFFSET 0 6.468898 -3.129235
    CHANNELS 3 Zrotation Xrotation Yrotation
    JOINT spine1
    {
      OFFSET 0 23.15396 4.99043
      CHANNELS 3 Zrotation Xrotation Yrotation
      JOINT spine2
      {
        OFFSET 0 20.79997 -5.064912
        CHANNELS 3 Zrotation Xrotation Yrotation
        JOINT neck
        {
          OFFSET 0 14.38658 9.616178
          CHANNELS 3 Zrotation Xrotation Yrotation
          End Site
          {
            OFFSET 0 20 0
          }
        }
      }
      JOINT right_manubrium
      {
        OFFSET -5.722621 16.35077 3.967754
        CHANNELS 3 Zrotation Xrotation Yrotation
        JOINT right_clavicle
        {
          OFFSET -13.16364 1.694482 -4.693211
          CHANNELS 3 Zrotation Xrotation Yrotation
          JOINT right_humerus
          {
            OFFSET -28.5034 -0.3100689 -2.792744
            CHANNELS 3 Zrotation Xrotation Yrotation
            JOINT right_radius
            {
              OFFSET -25.15693 0.02248979 -1.271978
              CHANNELS 3 Zrotation Xrotation Yrotation
              End Site
              {
                OFFSET -15 0 0
              }
            }
          }
        }
      }
      JOINT left_manubrium
      {
        OFFSET 5.722621 16.35077 3.967754
        CHANNELS 3 Zrotation Xrotation Yrotation
        JOINT left_clavicle
        {
          OFFSET 13.16364 1.694482 -4.693211
          CHANNELS 3 Zrotation Xrotation Yrotation
          JOINT left_humerus
          {
            OFFSET 29.39168 -1.063119 -2.237045
            CHANNELS 3 Zrotation Xrotation Yrotation
            JOINT left_radius
            {
              OFFSET 24.59957 -0.9528479 0.9047498
              CHANNELS 3 Zrotation Xrotation Yrotation
              End Site
              {
                OFFSET 15 -0 -0
              }
            }
          }
        }
      }
    }
  }
}
MOTION
Frames: 21
Frame Time: 0.0416666666667
0 103.5113 0 0.06401336 -0.7679588 -0.02413445 3.978477 -14.68325 7.873297 -0 33.84277 -0 -5.256195 -16.3712 -2.254128 -5.911981 7.052052 -20.45533 -0 6.138753 -0 6.216392 -16.82055 25.89408 -2.856137 -4.913862 4.998799 2.388726 11.0617 -8.643354 0.9163607 21.67491 6.921504 3.022127 -24.12273 9.267508 6.08101 -20.59246 12.29001 85.17274 32.46161 -19.6746 -0 0 17.74619 -10.54036 10.1134 3.653485 8.27335 -22.66249 0.0957188 -93.7097 21.58688 20.70132 0 0 -12.53465 15.08144 18.96916 -5.469733
0.2885712 103.229 1.979079 -0.2127244 -0.3152112 -0.01966966 4.575418 -17.63207 7.995615 -0 33.26077 -0 -5.629206 -15.22268 -2.417304 -5.845564 8.61244 -20.46424 -0 6.371983 -0 6.084651 -18.17025 25.63209 -2.77622 -4.321584 4.740291 2.575392 10.43585 -8.649291 1.051571 21.5581 6.946355 2.988358 -24.76315 9.540909 5.661164 -20.2233 11.9404 85.70796 32.66647 -19.93616 -0 0 17.12988 -9.710292 9.37245 3.354483 8.232319 -22.26962 0.3380091 -93.38064 21.8934 20.35175 0 0 -13.25691 14.787 18.66071 -4.89174
0.5556289 103.0584 3.546848 0.1840782 0.8506836 -0.06818887 4.898037 -20.26635 9.847005 -0 34.38625 -0 -5.139138 -17.17653 -3.435478 -6.54773 10.1716 -22.36426 -0 5.52708 -0 8.343943 -18.33685 26.82039 -3.491307 -4.24861 4.859412 2.844864 9.582413 -8.530594 1.33156 21.41515 6.742075 3.075042 -24.84633 9.525908 6.911994 -19.7242 11.65395 84.9207 35.96631 -19.78817 -0 0 17.233 -7.388135 9.04917 3.396633 7.214785 -20.95932 0.1058718 -93.82497 24.69467 21.3289 0 0 -14.95256 11.1025 18.56212 0.4726601
0.817763 102.919 5.104106 0.1626421 1.85751 -0.1231244 5.666601 -23.15832 10.90329 -0 33.72248 -0 -4.960396 -17.17961 -3.789114 -6.832812 11.16818 -22.97496 -0 5.728822 -0 9.89491 -18.76691 27.49661 -3.757874 -3.923262 4.943179 3.139928 9.083475 -8.502326 1.568272 21.06965 6.646248 3.112576 -25.4454 9.741971 7.300719 -19.46864 11.4248 84.7486 37.72835 -19.71466 -0 0 17.0842 -5.931799 8.75456 3.300352 6.854113 -20.23574 0.239528 -93.78711 25.26183 21.56398 0 0 -15.92368 10.43782 17.79138 1.839097
1.059339 102.6957 6.883135 -0.0363597 2.508313 -0.1309907 6.405702 -26.27938 10.96847 -0 31.59534 -0 -5.120393 -15.71073 -4.060269 -6.791748 12.51491 -22.92593 -0 6.028788 -0 9.637152 -20.23679 26.91886 -3.828107 -3.28787 4.703253 3.437668 8.450908 -8.409208 1.767949 20.80747 6.582283 3.161018 -26.08475 9.839216 7.170554 -19.13848 11.12376 84.90215 38.06745 -19.80684 -0 0 16.59128 -5.339682 8.412287 3.580189 6.54461 -19.64649 0.1302602 -93.88347 26.39766 21.80132 0 0 -16.89491 8.300813 17.19306 4.687758
1.288241 102.308 9.153166 -0.5106171 2.874793 -0.04630571 6.995617 -29.24961 9.920745 -0 28.04287 -0 -5.569225 -12.73838 -3.742746 -6.380199 13.37607 -21.70882 -0 6.934259 -0 8.042811 -21.91534 25.09895 -3.544332 -2.595529 4.304685 3.68726 8.22641 -8.4252 1.809621 20.48263 6.693562 3.290365 -26.77198 9.875529 6.618521 -18.84092 10.99598 85.31008 36.87313 -20.15908 -0 0 15.77103 -6.040929 8.460371 4.064924 6.702124 -19.82457 -0.05237478 -93.57275 26.34637 21.34556 0 0 -17.54887 7.510184 16.62728 5.586311
1.520432 101.7542 11.97627 -1.027637 3.241508 0.133168 7.410139 -31.85684 8.645492 -0 24.25043 -0 -6.064031 -9.567257 -3.190809 -5.923865 13.7415 -20.07836 -0 8.025955 -0 6.42654 -23.10678 22.95468 -3.163501 -2.034909 3.958875 3.88557 8.313749 -8.495081 1.796061 20.06559 6.856703 3.468394 -27.35558 9.865148 6.126269 -18.55795 11.00943 85.63665 35.44386 -20.51658 -0 0 14.89595 -7.185772 8.840868 4.646044 7.055772 -20.36587 -0.2462958 -93.00996 25.44621 20.54429 0 0 -18.03451 7.822639 16.00772 5.131637
1.776984 101.112 15.33318 -1.514835 3.941908 0.4361833 7.943055 -34.11884 7.866191 -0 20.91136 -0 -6.44174 -6.983939 -2.591415 -5.605743 13.77587 -18.55061 -0 9.195174 -0 5.512453 -23.67504 21.20543 -2.801906 -1.712306 3.81158 4.07774 8.574079 -8.63451 1.777862 19.45177 7.052123 3.65769 -27.95016 9.945427 5.899675 -18.27825 11.09744 85.80249 34.71282 -20.85259 -0 0 14.16793 -7.911841 9.387734 4.947489 7.547091 -21.00397 -0.155335 -92.31348 23.7759 19.63225 0 0 -18.48395 9.383963 15.08843 3.246825
2.066767 100.4811 19.22397 -1.983578 5.093582 0.9184225 8.814663 -36.21414 7.706728 -0 17.95642 -0 -6.68032 -4.894895 -2.016816 -5.429385 13.90012 -17.33423 -0 10.66237 -0 4.869178 -23.73821 19.61063 -2.459076 -1.503339 3.741606 4.322089 8.806776 -8.837731 1.690459 18.65818 7.397061 3.917716 -28.66733 10.12606 5.972175 -17.89029 11.22431 85.94884 35.11462 -21.35165 -0 0 13.44118 -7.889825 9.970518 4.972203 7.944281 -21.49166 0.08404281 -91.62413 22.2445 18.8663 0 0 -19.44503 10.93361 13.55551 1.459758
2.381551 99.93135 23.71268 -2.49078 6.395869 1.609377 9.88712 -37.81454 7.701853 -0 15.23155 -0 -6.891919 -2.856287 -1.459565 -5.206323 14.31423 -16.24865 -0 12.81418 -0 3.4005 -22.98993 17.22967 -1.959857 -1.261149 3.486974 4.556724 8.946466 -9.044516 1.404869 17.88388 7.981758 4.292087 -29.30274 10.20651 6.226728 -17.28869 11.441 86.34923 36.27814 -22.18687 -0 0 12.39972 -7.598545 10.58119 5.148815 7.961146 -21.81671 -0.02831636 -90.90775 21.70629 18.29646 0 0 -21.39718 11.02577 11.55664 1.497657
2.702322 99.52243 28.83216 -3.004736 7.204333 2.392337 10.64758 -37.86105 7.335504 -0 13.1962 -0 -7.165379 -1.283639 -1.140024 -4.729122 14.66978 -15.12304 -0 16.58908 -0 0.5760114 -20.66651 13.58756 -1.170318 -1.055153 2.973484 4.627155 8.986055 -9.124369 0.9483571 17.48987 8.533607 4.639139 -29.25431 9.808413 6.624545 -16.4176 11.76581 86.91029 37.2559 -23.1456 -0 0 11.00912 -7.811076 11.30311 5.927267 7.387592 -22.00346 -0.8560753 -90.24773 22.41473 17.96339 0 0 -23.73455 9.024195 10.00754 4.172494
3.018497 99.3894 34.49562 -3.346633 6.953435 2.996232 10.66324 -35.36554 6.564053 -0 12.82864 -0 -7.439536 -1.104744 -1.313046 -4.053308 14.15364 -13.98355 -0 23.51726 -0 -2.612225 -16.54366 9.776841 -0.2876269 -0.9976293 2.50051 4.504733 8.948174 -9.007993 0.5522591 17.73734 8.602379 4.741522 -28.17051 8.826221 7.208197 -15.34122 12.11173 87.08774 37.44506 -23.61689 -0 0 9.567777 -8.70153 12.09715 7.119987 6.294142 -21.87779 -2.085244 -89.84376 23.69474 17.87918 0 0 -24.80035 5.942391 9.617175 8.186896
3.334342 99.69111 40.53484 -3.311096 5.70274 3.220211 10.01352 -30.6707 5.68428 -0 13.88368 -0 -7.474203 -2.147352 -1.843653 -3.482197 12.23685 -12.85585 -0 33.31971 -0 -4.941448 -11.7475 7.235422 0.2916163 -0.9724183 2.411172 4.307255 8.948152 -8.72237 0.3825384 18.48939 8.149744 4.606285 -26.41988 7.624527 7.895681 -14.32957 12.4107 86.61749 37.09214 -23.26484 -0 0 8.389985 -9.91207 12.79754 8.253567 5.018943 -21.37395 -3.162511 -89.66797 24.73375 17.91696 0 0 -24.17546 3.129588 9.959791 11.72088
3.664457 100.5048 46.76659 -2.878696 4.051714 3.061838 9.06229 -24.89009 4.989986 -0 14.99006 -0 -7.022866 -3.459116 -2.315714 -3.194343 8.784889 -11.65402 -0 44.05995 -0 -6.206687 -7.405986 6.186841 0.432783 -0.911983 2.877235 4.092473 9.22422 -8.344065 0.3666481 19.29722 7.521638 4.429747 -24.67319 6.550217 8.602296 -13.77553 12.73529 85.70961 36.71186 -22.36321 -0 0 7.775469 -11.33156 13.41139 9.289396 3.884967 -20.83078 -3.898384 -89.59617 25.09545 18.15433 0 0 -23.0245 1.101184 10.11617 14.1838
4.031465 101.7716 53.0079 -2.12055 2.499016 2.609148 7.974405 -18.73415 4.584141 -0 15.11908 -0 -5.994404 -4.392133 -2.410006 -3.145559 3.637228 -10.2464 -0 54.14421 -0 -6.646078 -4.026748 6.216708 0.1804991 -0.849362 3.974899 3.837177 9.961476 -7.943843 0.3587153 19.79807 7.016998 4.372277 -23.35325 5.69559 9.332644 -13.92649 13.1903 84.50768 36.58969 -21.21941 -0 0 7.990169 -13.11721 14.06228 10.43252 3.077686 -20.61326 -4.313818 -89.59122 24.57972 18.8039 0 0 -22.31678 -0.06455221 9.560666 15.64322
4.445616 103.2598 59.07246 -1.098078 1.143147 1.970187 6.75801 -12.50768 4.416241 -0 13.8907 -0 -4.542201 -4.882859 -2.080489 -3.105514 -3.1238 -8.538696 -0 61.86922 -0 -6.556226 -2.085112 7.073172 -0.4248242 -0.7362273 5.587129 3.485939 11.07009 -7.527641 0.2926488 19.95668 6.738834 4.449442 -22.46354 5.061432 9.955519 -14.75337 13.75313 83.00481 36.6288 -19.79383 -0 0 9.145673 -15.30657 14.71597 11.69435 2.738086 -20.83282 -4.400492 -89.59693 23.31533 19.72989 0 0 -22.27338 -0.3758026 8.36128 16.12264
4.880325 104.5755 64.80317 0.01420145 -0.2015569 1.270149 5.567456 -6.430668 4.371774 -0 11.46628 -0 -3.127738 -5.514746 -1.546685 -2.687481 -10.68062 -6.573347 -0 64.89429 -0 -6.319345 -2.017921 8.792366 -1.24812 -0.4177055 7.255667 2.98644 12.07808 -7.010351 0.2190758 20.07697 6.611974 4.520731 -21.68367 4.681958 10.05918 -15.97361 14.20255 81.26199 36.33917 -17.75387 -0 0 11.13056 -17.57534 15.07228 12.77675 2.950586 -21.231 -4.119799 -89.63557 21.96349 20.44812 0 0 -22.41296 -0.05976331 7.087845 15.67405
5.293648 105.2841 70.16069 0.8878456 -1.711347 0.6093168 4.714397 -0.6599622 4.297099 -0 8.606189 -0 -2.2179 -7.185038 -1.150999 -1.604657 -17.62832 -4.594465 -0 61.39304 -0 -6.193761 -3.559856 11.35289 -1.968966 0.1907446 8.351195 2.323669 12.37754 -6.257713 0.2701675 20.55608 6.430597 4.376773 -20.56955 4.569046 9.22651 -17.212 14.25032 79.49073 35.09401 -14.77212 -0 0 13.65544 -19.45249 14.78108 13.4152 3.588097 -21.2494 -3.575046 -89.90221 21.3697 20.62661 0 0 -21.83394 0.3227195 6.499693 14.7311
5.69467 105.1465 75.29827 1.273323 -3.176712 -0.002969278 4.31739 4.669176 4.087904 -0 6.423813 -0 -1.712071 -10.04331 -1.00255 -0.02606597 -23.00923 -2.94008 -0 52.09112 -0 -6.055001 -5.523235 14.22738 -2.271525 0.8666541 8.642732 1.56784 11.86434 -5.292839 0.4902585 21.36697 6.085314 3.978133 -19.01705 4.62446 7.645088 -18.29382 13.89497 77.92898 32.86773 -11.07435 -0 0 16.43672 -20.89338 13.88743 13.84533 4.302244 -20.57185 -3.063967 -90.50592 21.60233 20.58771 0 0 -20.18197 0.303893 6.834518 13.9824
6.148388 104.2543 80.50225 1.209037 -4.071247 -0.62588 4.156099 9.262158 3.793714 -0 5.629931 -0 -1.093323 -13.10998 -0.8253611 1.546468 -26.79613 -1.773337 -0 40.33911 -0 -5.720486 -6.775406 16.57538 -2.147535 1.211818 8.484209 0.8708761 11.04878 -4.400443 0.7309758 22.01848 5.736113 3.539088 -17.50482 4.710389 6.071942 -19.2657 13.44026 76.65249 30.52425 -7.51703 -0 0 19.20622 -22.23176 12.87252 14.4956 4.802651 -19.49295 -2.785938 -91.25284 21.94857 20.9379 0 0 -18.0895 -0.06613589 7.527698 13.76449
6.710336 102.9045 86.03138 0.9301793 -4.175879 -1.291756 3.934376 12.85459 3.577234 -0 6.360114 -0 -0.1454171 -15.31098 -0.4048224 2.665508 -29.19805 -1.109954 -0 29.70571 -0 -5.261866 -7.08784 17.95564 -1.858278 1.055003 8.308245 0.3437727 10.38924 -3.830906 0.8651185 22.19395 5.552919 3.252005 -16.5337 4.77641 5.019283 -20.1189 13.08337 75.64648 28.87713 -4.851238 -0 0 21.62352 -23.56751 12.1195 15.35774 5.007388 -18.4424 -2.683034 -91.88209 21.9776 21.81409 0 0 -16.20599 -0.4975546 7.965755 13.92478
